<?xml version="1.0" encoding="UTF-8" standalone="no"?>
<!DOCTYPE svg PUBLIC "-//W3C//DTD SVG 1.1//EN"
 "http://www.w3.org/Graphics/SVG/1.1/DTD/svg11.dtd">
<!-- Generated by graphviz version 2.47.0 (20210316.0004)
 -->
<!-- Pages: 1 -->
<svg width="350pt" height="116pt"
 viewBox="0.00 0.00 350.00 116.00" xmlns="http://www.w3.org/2000/svg" xmlns:xlink="http://www.w3.org/1999/xlink">
<g id="graph0" class="graph" transform="scale(1 1) rotate(0) translate(4 112)">
<polygon fill="white" stroke="transparent" points="-4,4 -4,-112 346,-112 346,4 -4,4"/>
<!-- c3 -->
<g id="node1" class="node">
<title>c3</title>
<ellipse fill="none" stroke="black" cx="63" cy="-90" rx="27" ry="18"/>
<text text-anchor="middle" x="63" y="-86.3" font-family="Times,serif" font-size="14.00">c3</text>
</g>
<!-- c4 -->
<g id="node2" class="node">
<title>c4</title>
<ellipse fill="none" stroke="black" cx="27" cy="-18" rx="27" ry="18"/>
<text text-anchor="middle" x="27" y="-14.3" font-family="Times,serif" font-size="14.00">c4</text>
</g>
<!-- c3&#45;&gt;c4 -->
<g id="edge1" class="edge">
<title>c3&#45;&gt;c4</title>
<path fill="none" stroke="black" d="M49.73,-74.15C44.38,-65.79 38.57,-55.09 33.99,-45.34"/>
<polygon fill="black" stroke="black" points="37.12,-43.77 29.88,-36.04 30.71,-46.6 37.12,-43.77"/>
</g>
<!-- c1 -->
<g id="node3" class="node">
<title>c1</title>
<ellipse fill="none" stroke="black" cx="99" cy="-18" rx="27" ry="18"/>
<text text-anchor="middle" x="99" y="-14.3" font-family="Times,serif" font-size="14.00">c1</text>
</g>
<!-- c3&#45;&gt;c1 -->
<g id="edge2" class="edge">
<title>c3&#45;&gt;c1</title>
<path fill="none" stroke="black" d="M65.84,-72.05C69.44,-63.22 74.89,-52.28 80.42,-42.63"/>
<polygon fill="black" stroke="black" points="83.53,-44.26 85.7,-33.89 77.54,-40.64 83.53,-44.26"/>
</g>
<!-- c4&#45;&gt;c3 -->
<g id="edge3" class="edge">
<title>c4&#45;&gt;c3</title>
<path fill="none" stroke="black" d="M40.3,-33.89C45.66,-42.28 51.48,-53 56.06,-62.75"/>
<polygon fill="black" stroke="black" points="52.93,-64.32 60.16,-72.05 59.33,-61.49 52.93,-64.32"/>
</g>
<!-- c1&#45;&gt;c3 -->
<g id="edge7" class="edge">
<title>c1&#45;&gt;c3</title>
<path fill="none" stroke="black" d="M96.12,-36.04C92.51,-44.87 87.07,-55.8 81.54,-65.43"/>
<polygon fill="black" stroke="black" points="78.45,-63.79 76.27,-74.15 84.44,-67.4 78.45,-63.79"/>
</g>
<!-- c5 -->
<g id="node4" class="node">
<title>c5</title>
<ellipse fill="none" stroke="black" cx="171" cy="-90" rx="27" ry="18"/>
<text text-anchor="middle" x="171" y="-86.3" font-family="Times,serif" font-size="14.00">c5</text>
</g>
<!-- c2 -->
<g id="node5" class="node">
<title>c2</title>
<ellipse fill="none" stroke="black" cx="171" cy="-18" rx="27" ry="18"/>
<text text-anchor="middle" x="171" y="-14.3" font-family="Times,serif" font-size="14.00">c2</text>
</g>
<!-- c5&#45;&gt;c2 -->
<g id="edge4" class="edge">
<title>c5&#45;&gt;c2</title>
<path fill="none" stroke="black" d="M165.16,-72.41C164.3,-64.51 164.05,-54.85 164.41,-45.94"/>
<polygon fill="black" stroke="black" points="167.9,-46.18 165.12,-35.96 160.92,-45.68 167.9,-46.18"/>
</g>
<!-- c2&#45;&gt;c5 -->
<g id="edge8" class="edge">
<title>c2&#45;&gt;c5</title>
<path fill="none" stroke="black" d="M176.88,-35.96C177.71,-43.83 177.95,-53.37 177.58,-62.19"/>
<polygon fill="black" stroke="black" points="174.07,-62.18 176.84,-72.41 181.06,-62.69 174.07,-62.18"/>
</g>
<!-- c6 -->
<g id="node6" class="node">
<title>c6</title>
<ellipse fill="none" stroke="black" cx="243" cy="-90" rx="27" ry="18"/>
<text text-anchor="middle" x="243" y="-86.3" font-family="Times,serif" font-size="14.00">c6</text>
</g>
<!-- c7 -->
<g id="node7" class="node">
<title>c7</title>
<ellipse fill="none" stroke="black" cx="315" cy="-90" rx="27" ry="18"/>
<text text-anchor="middle" x="315" y="-86.3" font-family="Times,serif" font-size="14.00">c7</text>
</g>
<!-- c8 -->
<g id="node8" class="node">
<title>c8</title>
<ellipse fill="none" stroke="black" cx="315" cy="-18" rx="27" ry="18"/>
<text text-anchor="middle" x="315" y="-14.3" font-family="Times,serif" font-size="14.00">c8</text>
</g>
<!-- c7&#45;&gt;c8 -->
<g id="edge5" class="edge">
<title>c7&#45;&gt;c8</title>
<path fill="none" stroke="black" d="M309.16,-72.41C308.3,-64.51 308.05,-54.85 308.41,-45.94"/>
<polygon fill="black" stroke="black" points="311.9,-46.18 309.12,-35.96 304.92,-45.68 311.9,-46.18"/>
</g>
<!-- c8&#45;&gt;c7 -->
<g id="edge6" class="edge">
<title>c8&#45;&gt;c7</title>
<path fill="none" stroke="black" d="M320.88,-35.96C321.71,-43.83 321.95,-53.37 321.58,-62.19"/>
<polygon fill="black" stroke="black" points="318.07,-62.18 320.84,-72.41 325.06,-62.69 318.07,-62.18"/>
</g>
</g>
</svg>
