<?xml version="1.0" encoding="UTF-8" standalone="no"?>
<!DOCTYPE svg PUBLIC "-//W3C//DTD SVG 1.1//EN"
 "http://www.w3.org/Graphics/SVG/1.1/DTD/svg11.dtd">
<!-- Generated by graphviz version 7.1.0 (20230121.1956)
 -->
<!-- Pages: 1 -->
<svg width="156pt" height="188pt"
 viewBox="0.00 0.00 155.99 188.00" xmlns="http://www.w3.org/2000/svg" xmlns:xlink="http://www.w3.org/1999/xlink">
<g id="graph0" class="graph" transform="scale(1 1) rotate(0) translate(4 184)">
<polygon fill="white" stroke="none" points="-4,4 -4,-184 151.99,-184 151.99,4 -4,4"/>
<!-- node1 -->
<g id="node1" class="node">
<title>node1</title>
<ellipse fill="none" stroke="black" cx="32.5" cy="-162" rx="32.49" ry="18"/>
<text text-anchor="middle" x="32.5" y="-158.3" font-family="Times,serif" font-size="14.00">node1</text>
</g>
<!-- node2 -->
<g id="node2" class="node">
<title>node2</title>
<ellipse fill="none" stroke="black" cx="32.5" cy="-90" rx="32.49" ry="18"/>
<text text-anchor="middle" x="32.5" y="-86.3" font-family="Times,serif" font-size="14.00">node2</text>
</g>
<!-- node1&#45;&gt;node2 -->
<g id="edge1" class="edge">
<title>node1&#45;&gt;node2</title>
<path fill="none" stroke="black" d="M32.5,-143.7C32.5,-136.41 32.5,-127.73 32.5,-119.54"/>
<polygon fill="black" stroke="black" points="36,-119.62 32.5,-109.62 29,-119.62 36,-119.62"/>
</g>
<!-- node3 -->
<g id="node3" class="node">
<title>node3</title>
<ellipse fill="none" stroke="black" cx="115.5" cy="-162" rx="32.49" ry="18"/>
<text text-anchor="middle" x="115.5" y="-158.3" font-family="Times,serif" font-size="14.00">node3</text>
</g>
<!-- node4 -->
<g id="node4" class="node">
<title>node4</title>
<ellipse fill="none" stroke="black" cx="115.5" cy="-90" rx="32.49" ry="18"/>
<text text-anchor="middle" x="115.5" y="-86.3" font-family="Times,serif" font-size="14.00">node4</text>
</g>
<!-- node3&#45;&gt;node4 -->
<g id="edge2" class="edge">
<title>node3&#45;&gt;node4</title>
<path fill="none" stroke="black" d="M109.62,-144.05C108.83,-136.57 108.57,-127.58 108.86,-119.14"/>
<polygon fill="black" stroke="black" points="112.35,-119.51 109.53,-109.3 105.36,-119.04 112.35,-119.51"/>
</g>
<!-- node4&#45;&gt;node3 -->
<g id="edge3" class="edge">
<title>node4&#45;&gt;node3</title>
<path fill="none" stroke="black" d="M121.36,-107.79C122.16,-115.25 122.42,-124.24 122.14,-132.69"/>
<polygon fill="black" stroke="black" points="118.65,-132.33 121.48,-142.54 125.64,-132.8 118.65,-132.33"/>
</g>
<!-- node5 -->
<g id="node5" class="node">
<title>node5</title>
<ellipse fill="none" stroke="black" cx="115.5" cy="-18" rx="32.49" ry="18"/>
<text text-anchor="middle" x="115.5" y="-14.3" font-family="Times,serif" font-size="14.00">node5</text>
</g>
<!-- node4&#45;&gt;node5 -->
<g id="edge4" class="edge">
<title>node4&#45;&gt;node5</title>
<path fill="none" stroke="black" d="M109.62,-72.05C108.83,-64.57 108.57,-55.58 108.86,-47.14"/>
<polygon fill="black" stroke="black" points="112.35,-47.51 109.53,-37.3 105.36,-47.04 112.35,-47.51"/>
</g>
<!-- node5&#45;&gt;node4 -->
<g id="edge5" class="edge">
<title>node5&#45;&gt;node4</title>
<path fill="none" stroke="black" d="M121.36,-35.79C122.16,-43.25 122.42,-52.24 122.14,-60.69"/>
<polygon fill="black" stroke="black" points="118.65,-60.33 121.48,-70.54 125.64,-60.8 118.65,-60.33"/>
</g>
</g>
</svg>
