<?xml version="1.0" encoding="UTF-8" standalone="no"?>
<!DOCTYPE svg PUBLIC "-//W3C//DTD SVG 1.1//EN"
 "http://www.w3.org/Graphics/SVG/1.1/DTD/svg11.dtd">
<!-- Generated by graphviz version 2.47.0 (20210316.0004)
 -->
<!-- Pages: 1 -->
<svg width="239pt" height="116pt"
 viewBox="0.00 0.00 238.99 116.00" xmlns="http://www.w3.org/2000/svg" xmlns:xlink="http://www.w3.org/1999/xlink">
<g id="graph0" class="graph" transform="scale(1 1) rotate(0) translate(4 112)">
<polygon fill="white" stroke="transparent" points="-4,4 -4,-112 234.99,-112 234.99,4 -4,4"/>
<!-- node5 -->
<g id="node1" class="node">
<title>node5</title>
<ellipse fill="none" stroke="black" cx="32.5" cy="-90" rx="32.49" ry="18"/>
<text text-anchor="middle" x="32.5" y="-86.3" font-family="Times,serif" font-size="14.00">node5</text>
</g>
<!-- node4 -->
<g id="node2" class="node">
<title>node4</title>
<ellipse fill="none" stroke="black" cx="32.5" cy="-18" rx="32.49" ry="18"/>
<text text-anchor="middle" x="32.5" y="-14.3" font-family="Times,serif" font-size="14.00">node4</text>
</g>
<!-- node5&#45;&gt;node4 -->
<g id="edge1" class="edge">
<title>node5&#45;&gt;node4</title>
<path fill="none" stroke="black" d="M26.62,-72.05C25.79,-64.23 25.55,-54.75 25.91,-45.98"/>
<polygon fill="black" stroke="black" points="29.41,-46.01 26.64,-35.79 22.43,-45.51 29.41,-46.01"/>
</g>
<!-- node4&#45;&gt;node5 -->
<g id="edge3" class="edge">
<title>node4&#45;&gt;node5</title>
<path fill="none" stroke="black" d="M38.36,-35.79C39.2,-43.59 39.44,-53.07 39.09,-61.85"/>
<polygon fill="black" stroke="black" points="35.59,-61.83 38.38,-72.05 42.57,-62.33 35.59,-61.83"/>
</g>
<!-- node1 -->
<g id="node3" class="node">
<title>node1</title>
<ellipse fill="none" stroke="black" cx="115.5" cy="-90" rx="32.49" ry="18"/>
<text text-anchor="middle" x="115.5" y="-86.3" font-family="Times,serif" font-size="14.00">node1</text>
</g>
<!-- node2 -->
<g id="node4" class="node">
<title>node2</title>
<ellipse fill="none" stroke="black" cx="115.5" cy="-18" rx="32.49" ry="18"/>
<text text-anchor="middle" x="115.5" y="-14.3" font-family="Times,serif" font-size="14.00">node2</text>
</g>
<!-- node1&#45;&gt;node2 -->
<g id="edge2" class="edge">
<title>node1&#45;&gt;node2</title>
<path fill="none" stroke="black" d="M115.5,-71.7C115.5,-63.98 115.5,-54.71 115.5,-46.11"/>
<polygon fill="black" stroke="black" points="119,-46.1 115.5,-36.1 112,-46.1 119,-46.1"/>
</g>
<!-- node3 -->
<g id="node5" class="node">
<title>node3</title>
<ellipse fill="none" stroke="black" cx="198.5" cy="-90" rx="32.49" ry="18"/>
<text text-anchor="middle" x="198.5" y="-86.3" font-family="Times,serif" font-size="14.00">node3</text>
</g>
</g>
</svg>
