<?xml version="1.0" encoding="UTF-8" standalone="no"?>
<!DOCTYPE svg PUBLIC "-//W3C//DTD SVG 1.1//EN"
 "http://www.w3.org/Graphics/SVG/1.1/DTD/svg11.dtd">
<!-- Generated by graphviz version 2.47.0 (20210316.0004)
 -->
<!-- Pages: 1 -->
<svg width="156pt" height="188pt"
 viewBox="0.00 0.00 155.99 188.00" xmlns="http://www.w3.org/2000/svg" xmlns:xlink="http://www.w3.org/1999/xlink">
<g id="graph0" class="graph" transform="scale(1 1) rotate(0) translate(4 184)">
<polygon fill="white" stroke="transparent" points="-4,4 -4,-184 151.99,-184 151.99,4 -4,4"/>
<!-- node1 -->
<g id="node1" class="node">
<title>node1</title>
<ellipse fill="none" stroke="black" cx="32.5" cy="-162" rx="32.49" ry="18"/>
<text text-anchor="middle" x="32.5" y="-158.3" font-family="Times,serif" font-size="14.00">node1</text>
</g>
<!-- node2 -->
<g id="node2" class="node">
<title>node2</title>
<ellipse fill="none" stroke="black" cx="32.5" cy="-90" rx="32.49" ry="18"/>
<text text-anchor="middle" x="32.5" y="-86.3" font-family="Times,serif" font-size="14.00">node2</text>
</g>
<!-- node1&#45;&gt;node2 -->
<g id="edge1" class="edge">
<title>node1&#45;&gt;node2</title>
<path fill="none" stroke="black" d="M32.5,-143.7C32.5,-135.98 32.5,-126.71 32.5,-118.11"/>
<polygon fill="black" stroke="black" points="36,-118.1 32.5,-108.1 29,-118.1 36,-118.1"/>
</g>
<!-- node3 -->
<g id="node3" class="node">
<title>node3</title>
<ellipse fill="none" stroke="black" cx="115.5" cy="-162" rx="32.49" ry="18"/>
<text text-anchor="middle" x="115.5" y="-158.3" font-family="Times,serif" font-size="14.00">node3</text>
</g>
<!-- node4 -->
<g id="node4" class="node">
<title>node4</title>
<ellipse fill="none" stroke="black" cx="115.5" cy="-90" rx="32.49" ry="18"/>
<text text-anchor="middle" x="115.5" y="-86.3" font-family="Times,serif" font-size="14.00">node4</text>
</g>
<!-- node3&#45;&gt;node4 -->
<g id="edge2" class="edge">
<title>node3&#45;&gt;node4</title>
<path fill="none" stroke="black" d="M109.62,-144.05C108.79,-136.23 108.55,-126.75 108.91,-117.98"/>
<polygon fill="black" stroke="black" points="112.41,-118.01 109.64,-107.79 105.43,-117.51 112.41,-118.01"/>
</g>
<!-- node4&#45;&gt;node3 -->
<g id="edge4" class="edge">
<title>node4&#45;&gt;node3</title>
<path fill="none" stroke="black" d="M121.36,-107.79C122.2,-115.59 122.44,-125.07 122.09,-133.85"/>
<polygon fill="black" stroke="black" points="118.59,-133.83 121.38,-144.05 125.57,-134.33 118.59,-133.83"/>
</g>
<!-- node5 -->
<g id="node5" class="node">
<title>node5</title>
<ellipse fill="none" stroke="black" cx="115.5" cy="-18" rx="32.49" ry="18"/>
<text text-anchor="middle" x="115.5" y="-14.3" font-family="Times,serif" font-size="14.00">node5</text>
</g>
<!-- node4&#45;&gt;node5 -->
<g id="edge3" class="edge">
<title>node4&#45;&gt;node5</title>
<path fill="none" stroke="black" d="M109.62,-72.05C108.79,-64.23 108.55,-54.75 108.91,-45.98"/>
<polygon fill="black" stroke="black" points="112.41,-46.01 109.64,-35.79 105.43,-45.51 112.41,-46.01"/>
</g>
<!-- node5&#45;&gt;node4 -->
<g id="edge5" class="edge">
<title>node5&#45;&gt;node4</title>
<path fill="none" stroke="black" d="M121.36,-35.79C122.2,-43.59 122.44,-53.07 122.09,-61.85"/>
<polygon fill="black" stroke="black" points="118.59,-61.83 121.38,-72.05 125.57,-62.33 118.59,-61.83"/>
</g>
</g>
</svg>
