<?xml version="1.0" encoding="UTF-8" standalone="no"?>
<!DOCTYPE svg PUBLIC "-//W3C//DTD SVG 1.1//EN"
 "http://www.w3.org/Graphics/SVG/1.1/DTD/svg11.dtd">
<!-- Generated by graphviz version 8.0.5 (20230430.1635)
 -->
<!-- Pages: 1 -->
<svg width="245pt" height="116pt"
 viewBox="0.00 0.00 244.88 116.00" xmlns="http://www.w3.org/2000/svg" xmlns:xlink="http://www.w3.org/1999/xlink">
<g id="graph0" class="graph" transform="scale(1 1) rotate(0) translate(4 112)">
<polygon fill="white" stroke="none" points="-4,4 -4,-112 240.88,-112 240.88,4 -4,4"/>
<!-- node4 -->
<g id="node1" class="node">
<title>node4</title>
<ellipse fill="none" stroke="black" cx="76.44" cy="-90" rx="33.44" ry="18"/>
<text text-anchor="middle" x="76.44" y="-84.95" font-family="Times,serif" font-size="14.00">node4</text>
</g>
<!-- node5 -->
<g id="node2" class="node">
<title>node5</title>
<ellipse fill="none" stroke="black" cx="33.44" cy="-18" rx="33.44" ry="18"/>
<text text-anchor="middle" x="33.44" y="-12.95" font-family="Times,serif" font-size="14.00">node5</text>
</g>
<!-- node4&#45;&gt;node5 -->
<g id="edge1" class="edge">
<title>node4&#45;&gt;node5</title>
<path fill="none" stroke="black" d="M61.43,-73.81C55.37,-65.57 48.67,-55.15 43.21,-45.62"/>
<polygon fill="black" stroke="black" points="45.91,-44.25 38.06,-37.13 39.76,-47.59 45.91,-44.25"/>
</g>
<!-- node3 -->
<g id="node3" class="node">
<title>node3</title>
<ellipse fill="none" stroke="black" cx="118.44" cy="-18" rx="33.44" ry="18"/>
<text text-anchor="middle" x="118.44" y="-12.95" font-family="Times,serif" font-size="14.00">node3</text>
</g>
<!-- node4&#45;&gt;node3 -->
<g id="edge2" class="edge">
<title>node4&#45;&gt;node3</title>
<path fill="none" stroke="black" d="M80.9,-71.7C85.19,-63.07 91.35,-52.5 97.53,-43.1"/>
<polygon fill="black" stroke="black" points="100.86,-45.43 103.64,-35.2 95.09,-41.47 100.86,-45.43"/>
</g>
<!-- node5&#45;&gt;node4 -->
<g id="edge3" class="edge">
<title>node5&#45;&gt;node4</title>
<path fill="none" stroke="black" d="M48.46,-34.2C54.49,-42.4 61.15,-52.75 66.58,-62.24"/>
<polygon fill="black" stroke="black" points="63.87,-63.58 71.72,-70.7 70.02,-60.24 63.87,-63.58"/>
</g>
<!-- node3&#45;&gt;node4 -->
<g id="edge5" class="edge">
<title>node3&#45;&gt;node4</title>
<path fill="none" stroke="black" d="M114.14,-35.96C109.91,-44.53 103.77,-55.09 97.6,-64.52"/>
<polygon fill="black" stroke="black" points="94.24,-62.23 91.48,-72.46 100.01,-66.19 94.24,-62.23"/>
</g>
<!-- node1 -->
<g id="node4" class="node">
<title>node1</title>
<ellipse fill="none" stroke="black" cx="203.44" cy="-90" rx="33.44" ry="18"/>
<text text-anchor="middle" x="203.44" y="-84.95" font-family="Times,serif" font-size="14.00">node1</text>
</g>
<!-- node2 -->
<g id="node5" class="node">
<title>node2</title>
<ellipse fill="none" stroke="black" cx="203.44" cy="-18" rx="33.44" ry="18"/>
<text text-anchor="middle" x="203.44" y="-12.95" font-family="Times,serif" font-size="14.00">node2</text>
</g>
<!-- node1&#45;&gt;node2 -->
<g id="edge4" class="edge">
<title>node1&#45;&gt;node2</title>
<path fill="none" stroke="black" d="M203.44,-71.7C203.44,-64.24 203.44,-55.32 203.44,-46.97"/>
<polygon fill="black" stroke="black" points="206.94,-47.1 203.44,-37.1 199.94,-47.1 206.94,-47.1"/>
</g>
</g>
</svg>
