<?xml version="1.0" encoding="UTF-8" standalone="no"?>
<!DOCTYPE svg PUBLIC "-//W3C//DTD SVG 1.1//EN"
 "http://www.w3.org/Graphics/SVG/1.1/DTD/svg11.dtd">
<!-- Generated by graphviz version 9.0.0 (20230911.1827)
 -->
<!-- Pages: 1 -->
<svg width="160pt" height="188pt"
 viewBox="0.00 0.00 159.88 188.00" xmlns="http://www.w3.org/2000/svg" xmlns:xlink="http://www.w3.org/1999/xlink">
<g id="graph0" class="graph" transform="scale(1 1) rotate(0) translate(4 184)">
<polygon fill="white" stroke="none" points="-4,4 -4,-184 155.88,-184 155.88,4 -4,4"/>
<!-- node1 -->
<g id="node1" class="node">
<title>node1</title>
<ellipse fill="none" stroke="black" cx="33.44" cy="-162" rx="33.44" ry="18"/>
<text text-anchor="middle" x="33.44" y="-156.95" font-family="Times,serif" font-size="14.00">node1</text>
</g>
<!-- node2 -->
<g id="node2" class="node">
<title>node2</title>
<ellipse fill="none" stroke="black" cx="33.44" cy="-90" rx="33.44" ry="18"/>
<text text-anchor="middle" x="33.44" y="-84.95" font-family="Times,serif" font-size="14.00">node2</text>
</g>
<!-- node1&#45;&gt;node2 -->
<g id="edge1" class="edge">
<title>node1&#45;&gt;node2</title>
<path fill="none" stroke="black" d="M33.44,-143.7C33.44,-136.41 33.44,-127.73 33.44,-119.54"/>
<polygon fill="black" stroke="black" points="36.94,-119.62 33.44,-109.62 29.94,-119.62 36.94,-119.62"/>
</g>
<!-- node3 -->
<g id="node3" class="node">
<title>node3</title>
<ellipse fill="none" stroke="black" cx="118.44" cy="-162" rx="33.44" ry="18"/>
<text text-anchor="middle" x="118.44" y="-156.95" font-family="Times,serif" font-size="14.00">node3</text>
</g>
<!-- node4 -->
<g id="node4" class="node">
<title>node4</title>
<ellipse fill="none" stroke="black" cx="118.44" cy="-90" rx="33.44" ry="18"/>
<text text-anchor="middle" x="118.44" y="-84.95" font-family="Times,serif" font-size="14.00">node4</text>
</g>
<!-- node3&#45;&gt;node4 -->
<g id="edge2" class="edge">
<title>node3&#45;&gt;node4</title>
<path fill="none" stroke="black" d="M112.56,-144.05C111.77,-136.57 111.51,-127.58 111.8,-119.14"/>
<polygon fill="black" stroke="black" points="115.29,-119.51 112.47,-109.3 108.3,-119.04 115.29,-119.51"/>
</g>
<!-- node4&#45;&gt;node3 -->
<g id="edge4" class="edge">
<title>node4&#45;&gt;node3</title>
<path fill="none" stroke="black" d="M124.3,-107.79C125.1,-115.25 125.36,-124.24 125.08,-132.69"/>
<polygon fill="black" stroke="black" points="121.59,-132.33 124.42,-142.54 128.58,-132.8 121.59,-132.33"/>
</g>
<!-- node5 -->
<g id="node5" class="node">
<title>node5</title>
<ellipse fill="none" stroke="black" cx="118.44" cy="-18" rx="33.44" ry="18"/>
<text text-anchor="middle" x="118.44" y="-12.95" font-family="Times,serif" font-size="14.00">node5</text>
</g>
<!-- node4&#45;&gt;node5 -->
<g id="edge3" class="edge">
<title>node4&#45;&gt;node5</title>
<path fill="none" stroke="black" d="M112.56,-72.05C111.77,-64.57 111.51,-55.58 111.8,-47.14"/>
<polygon fill="black" stroke="black" points="115.29,-47.51 112.47,-37.3 108.3,-47.04 115.29,-47.51"/>
</g>
<!-- node5&#45;&gt;node4 -->
<g id="edge5" class="edge">
<title>node5&#45;&gt;node4</title>
<path fill="none" stroke="black" d="M124.3,-35.79C125.1,-43.25 125.36,-52.24 125.08,-60.69"/>
<polygon fill="black" stroke="black" points="121.59,-60.33 124.42,-70.54 128.58,-60.8 121.59,-60.33"/>
</g>
</g>
</svg>
