<?xml version="1.0" encoding="UTF-8" standalone="no"?>
<!DOCTYPE svg PUBLIC "-//W3C//DTD SVG 1.1//EN"
 "http://www.w3.org/Graphics/SVG/1.1/DTD/svg11.dtd">
<!-- Generated by graphviz version 8.0.5 (20230430.1635)
 -->
<!-- Pages: 1 -->
<svg width="160pt" height="188pt"
 viewBox="0.00 0.00 159.88 188.00" xmlns="http://www.w3.org/2000/svg" xmlns:xlink="http://www.w3.org/1999/xlink">
<g id="graph0" class="graph" transform="scale(1 1) rotate(0) translate(4 184)">
<polygon fill="white" stroke="none" points="-4,4 -4,-184 155.88,-184 155.88,4 -4,4"/>
<!-- node2 -->
<g id="node1" class="node">
<title>node2</title>
<ellipse fill="none" stroke="black" cx="33.44" cy="-90" rx="33.44" ry="18"/>
<text text-anchor="middle" x="33.44" y="-84.95" font-family="Times,serif" font-size="14.00">node2</text>
</g>
<!-- node3 -->
<g id="node2" class="node">
<title>node3</title>
<ellipse fill="none" stroke="black" cx="118.44" cy="-162" rx="33.44" ry="18"/>
<text text-anchor="middle" x="118.44" y="-156.95" font-family="Times,serif" font-size="14.00">node3</text>
</g>
<!-- node4 -->
<g id="node3" class="node">
<title>node4</title>
<ellipse fill="none" stroke="black" cx="118.44" cy="-90" rx="33.44" ry="18"/>
<text text-anchor="middle" x="118.44" y="-84.95" font-family="Times,serif" font-size="14.00">node4</text>
</g>
<!-- node3&#45;&gt;node4 -->
<g id="edge1" class="edge">
<title>node3&#45;&gt;node4</title>
<path fill="none" stroke="black" d="M112.56,-144.05C111.75,-136.4 111.5,-127.16 111.83,-118.56"/>
<polygon fill="black" stroke="black" points="115.37,-119.01 112.58,-108.79 108.39,-118.52 115.37,-119.01"/>
</g>
<!-- node4&#45;&gt;node3 -->
<g id="edge3" class="edge">
<title>node4&#45;&gt;node3</title>
<path fill="none" stroke="black" d="M124.3,-107.79C125.12,-115.42 125.37,-124.65 125.06,-133.27"/>
<polygon fill="black" stroke="black" points="121.51,-132.84 124.32,-143.05 128.49,-133.32 121.51,-132.84"/>
</g>
<!-- node5 -->
<g id="node4" class="node">
<title>node5</title>
<ellipse fill="none" stroke="black" cx="118.44" cy="-18" rx="33.44" ry="18"/>
<text text-anchor="middle" x="118.44" y="-12.95" font-family="Times,serif" font-size="14.00">node5</text>
</g>
<!-- node4&#45;&gt;node5 -->
<g id="edge2" class="edge">
<title>node4&#45;&gt;node5</title>
<path fill="none" stroke="black" d="M112.56,-72.05C111.75,-64.4 111.5,-55.16 111.83,-46.56"/>
<polygon fill="black" stroke="black" points="115.37,-47.01 112.58,-36.79 108.39,-46.52 115.37,-47.01"/>
</g>
<!-- node5&#45;&gt;node4 -->
<g id="edge4" class="edge">
<title>node5&#45;&gt;node4</title>
<path fill="none" stroke="black" d="M124.3,-35.79C125.12,-43.42 125.37,-52.65 125.06,-61.27"/>
<polygon fill="black" stroke="black" points="121.51,-60.84 124.32,-71.05 128.49,-61.32 121.51,-60.84"/>
</g>
<!-- node1 -->
<g id="node5" class="node">
<title>node1</title>
<ellipse fill="none" stroke="black" cx="33.44" cy="-162" rx="33.44" ry="18"/>
<text text-anchor="middle" x="33.44" y="-156.95" font-family="Times,serif" font-size="14.00">node1</text>
</g>
<!-- node1&#45;&gt;node2 -->
<g id="edge5" class="edge">
<title>node1&#45;&gt;node2</title>
<path fill="none" stroke="black" d="M33.44,-143.7C33.44,-136.24 33.44,-127.32 33.44,-118.97"/>
<polygon fill="black" stroke="black" points="36.94,-119.1 33.44,-109.1 29.94,-119.1 36.94,-119.1"/>
</g>
</g>
</svg>
